# xmcd
#
# Track frame offsets:
#	150
#	14335
#	27443
#	42573
#	63739
#	79350
#	94170
#	112207
#	130203
#	147181
#	166345
#
# Disc length: 2520 seconds
#
# Revision: 1
# Processed by: cddbd v1.5.2PL0 Copyright (c) Steve Scherf et al.
# Submitted via: audiograbber 1.83.01
#
DISCID=a009d60b
DTITLE=Ray Scott - Guitar For Sale
DYEAR=2017
DGENRE=Country
TTITLE0=Livin' This Way
TTITLE1=Put Down The Bottle
TTITLE2=The Fire
TTITLE3=Soberin' Up
TTITLE4=Pray For The Fish
TTITLE5=Put Down That Gun
TTITLE6=Growin' Old
TTITLE7=Worth Killin' For
TTITLE8=Life Ain't Long Enough
TTITLE9=Doin' Me Wrong
TTITLE10=Guitar for Sale
EXTD=
EXTT0=
EXTT1=
EXTT2=
EXTT3=
EXTT4=
EXTT5=
EXTT6=
EXTT7=
EXTT8=
EXTT9=
EXTT10=
PLAYORDER=
